<?xml version="1.0" encoding="UTF-8"?>
<svg xmlns="http://www.w3.org/2000/svg" version="1.1" viewBox="0 0 146.4 146.4">
  <defs>
    <style>
      .st0 { fill: #033acc; }
      .st1 { fill: #041b9f; }
      .st2 { fill: #2997ff; }
      .st3 { fill: #0263fa; }
    </style>
  </defs>
  <path class="st2" d="M39,27.5c-.5,1.5-.7,3.2-.7,4.9v15.9s-2.1-.6-2.1-.6c-4.8-1.4-9.7-.8-13.8,1.1v-4.5c0-9.5,7.7-16.7,16.6-16.9Z"/>
  <path class="st2" d="M107.7,118.6c-2.6,8.5-11.7,13.9-20.8,11.3l-4.7-1.4c3.2-3.5,5.2-8.1,5.2-13.3v-1.7s15.4,4.4,15.4,4.4c1.7.5,3.3.7,4.9.7Z"/>
  <path class="st3" d="M59,32.5c0,.1,0,.3,0,.4v21.3s-20.7-5.9-20.7-5.9v-15.9c0-1.7.3-3.4.7-4.9,1.6,0,3.3.2,4.9.7l15.1,4.3Z"/>
  <path class="st2" d="M65.3,17.8c-3.7,3.7-6.2,8.9-6.3,14.7l-15.1-4.3c-1.7-.5-3.3-.7-4.9-.7,2.6-8.5,11.7-13.9,20.8-11.3l5.5,1.6Z"/>
  <path class="st3" d="M108.4,97.8v15.8c0,1.7-.3,3.4-.7,4.9-1.6,0-3.3-.2-4.9-.7l-15.4-4.4v-21.7s21.1,6,21.1,6Z"/>
  <path class="st2" d="M124.2,97.4v4.3c0,9.5-7.7,16.7-16.6,16.9.5-1.5.7-3.2.7-4.9v-15.8s2.5.7,2.5.7c4.7,1.3,9.4.8,13.4-1.1Z"/>
  <path class="st0" d="M87.3,91.8v21.7s-16.1-4.6-16.1-4.6c-19.5-5.6-32.9-23.4-32.9-43.6v-17s20.7,5.9,20.7,5.9v29.5s28.3,8.1,28.3,8.1Z"/>
  <path class="st3" d="M87.3,113.5v1.7c0,5.2-2,9.8-5.2,13.3l-17.2-4.9c-25.2-7.2-42.5-30.2-42.5-56.4v-18.4c4.1-2,8.9-2.5,13.8-1.1l2.1.6v17c0,20.3,13.4,38.1,32.9,43.6l16.1,4.6Z"/>
  <path class="st2" d="M82.1,128.5c-4.8,5.3-12.4,7.8-20,5.6l-4.8-1.4c-27.3-7.8-46.1-32.8-46.1-61.1v-5.2c0-7.9,4.6-14.5,11.1-17.6v18.4c0,26.2,17.3,49.2,42.5,56.4l17.2,4.9Z"/>
  <path class="st2" d="M135.1,74.3v5.9c0,7.7-4.5,14.2-10.9,17.2v-18.6c0-26.2-17.3-49.2-42.5-56.3l-16.5-4.7c5.2-5.2,13.1-7.7,21-5.4l2.6.8c27.3,7.8,46.2,32.8,46.1,61.2Z"/>
  <path class="st3" d="M124.3,78.8v18.6c-4,1.9-8.7,2.4-13.4,1.1l-2.5-.7v-17c0-20.3-13.4-38.1-32.9-43.6l-16.5-4.7c.1-5.8,2.5-11,6.3-14.7l16.5,4.7c25.1,7.2,42.5,30.2,42.5,56.3Z"/>
  <path class="st0" d="M108.4,80.8v17s-21.1-6-21.1-6v-29.5s-28.3-8.1-28.3-8.1v-21.3c0-.1,0-.3,0-.4l16.5,4.7c19.5,5.6,32.9,23.4,32.9,43.6Z"/>
  <polygon class="st1" points="87.3 62.3 87.3 91.8 59 83.7 59 54.2 87.3 62.3"/>
</svg>
